<svg width="28" height="32" viewBox="0 0 28 32" fill="none" xmlns="http://www.w3.org/2000/svg">
  <path d="M23 0H5C2.23858 0 0 2.23858 0 5V20.7411C0 22.5116 0.936367 24.1502 2.46182 25.049L11.6734 30.4764C13.265 31.4142 15.2439 31.398 16.8199 30.4344L25.6082 25.0609C27.094 24.1524 28 22.5365 28 20.7951V5C28 2.23858 25.7614 0 23 0Z" fill="#AE9217"/>
  <path d="M21.7037 1.48267H6.29626C3.53484 1.48267 1.29626 3.72125 1.29626 6.48267V20.1342C1.29626 21.9015 2.22922 23.5375 3.75022 24.4374L11.6414 29.1063C13.2369 30.0503 15.2237 30.034 16.8036 29.064L24.3198 24.4491C25.801 23.5397 26.7037 21.9263 26.7037 20.1882V6.48267C26.7037 3.72124 24.4651 1.48267 21.7037 1.48267Z" fill="#DAAD0C"/>
  <path d="M12.7487 13.5908L14.4358 20.9183H11.2368L10.6671 18.0887C10.5794 17.6663 10.5137 17.244 10.4699 16.8216L10.3165 15.5124L10.2289 14.5833L10.1193 15.4702C10.0755 15.8362 10.039 16.1318 10.0098 16.3571C9.98054 16.5823 9.95132 16.7794 9.92211 16.9483C9.9075 17.1173 9.88559 17.2862 9.85637 17.4552C9.82716 17.61 9.79064 17.8071 9.74682 18.0464L9.19904 20.9183H6L7.68716 13.5908L6.35058 6.83337H9.3305L9.7249 9.13511L9.92211 10.381L10.0755 11.6691C10.1047 11.8381 10.1266 12.007 10.1412 12.1759C10.1704 12.3449 10.1996 12.5208 10.2289 12.7039C10.2727 12.183 10.3092 11.7466 10.3384 11.3946C10.3822 11.0286 10.4188 10.7189 10.448 10.4655C10.4772 10.198 10.5064 9.97275 10.5356 9.78973C10.5648 9.59264 10.6014 9.38851 10.6452 9.17734L11.0834 6.83337H14.0852L12.7487 13.5908Z" fill="black"/>
  <path d="M15.2231 6.83337H19.7368C21.1099 6.83337 22.0886 7.29795 22.6729 8.22709C22.8336 8.48049 22.9431 8.79724 23.0016 9.17734C23.0746 9.54337 23.1111 10.0572 23.1111 10.7189C23.1111 11.5635 23.0454 12.2111 22.9139 12.6616C22.7971 13.1121 22.5925 13.4781 22.3004 13.7597C21.7745 14.2384 21.1245 14.4777 20.3503 14.4777H18.3783V20.9183H15.2231V6.83337ZM19.0137 11.8803C19.1306 11.8803 19.2547 11.8521 19.3862 11.7958C19.5177 11.7395 19.6345 11.6762 19.7368 11.6058C19.839 11.5072 19.9048 11.3946 19.934 11.2679C19.9778 11.1412 19.9997 10.9371 19.9997 10.6555C19.9997 10.205 19.9194 9.88828 19.7587 9.70527C19.6126 9.52225 19.3497 9.43075 18.9699 9.43075H18.3783V11.8803H19.0137Z" fill="black"/>
</svg>
